<svg width="270" height="270" viewBox="0 0 270 270" fill="none" xmlns="http://www.w3.org/2000/svg">
  <style>
    path { fill: #334155; }
    @media (prefers-color-scheme: dark) {
      path { fill: #fff; }
    }
  </style>
  <path d="M151.167 69.8065L142.435 117.043C142.435 118.754 143.291 119.61 145.003 119.61C146.03 119.61 148.599 117.728 152.708 113.962L182.502 86.2366C189.008 80.0753 195.857 76.9946 203.049 76.9946C214.35 76.9946 220 81.9579 220 91.8844C220 101.811 213.322 109.341 199.967 114.476L161.441 128.852C155.619 131.248 152.708 133.302 152.708 135.013C152.708 136.383 155.619 138.265 161.441 140.661L199.967 155.038C213.322 160.172 220 167.531 220 177.116C220 187.384 214.35 192.519 203.049 192.519C195.857 192.519 189.008 189.438 182.502 183.277L152.708 155.551C148.599 151.786 146.03 149.903 145.003 149.903C143.291 149.903 142.435 150.759 142.435 152.47V154.524L143.462 160.685L151.167 199.707C151.852 203.13 152.195 206.039 152.195 208.435C152.195 222.812 146.544 230 135.243 230C123.942 230 118.292 222.812 118.292 208.435C118.292 205.697 118.634 202.788 119.319 199.707L127.538 160.685C128.223 157.263 128.565 154.695 128.565 152.984C128.565 150.93 127.709 149.903 125.997 149.903C124.97 149.903 122.401 151.786 118.292 155.551L88.4985 183.277C81.9919 189.438 74.9716 192.519 67.4377 192.519C56.4792 192.519 51 187.556 51 177.629C51 167.703 57.6778 160.172 71.0334 155.038L109.046 140.661C114.867 138.265 117.778 136.383 117.778 135.013C117.778 132.96 114.867 130.906 109.046 128.852L71.0334 114.476C57.6778 109.341 51 101.982 51 92.3978C51 82.4713 56.6505 77.5081 67.9514 77.5081C75.4853 77.5081 82.3344 80.4176 88.4985 86.2366L118.292 113.962C122.401 117.728 124.97 119.61 125.997 119.61C127.709 119.61 128.565 118.583 128.565 116.53C128.565 114.818 128.223 112.251 127.538 108.828L119.319 69.8065C118.634 66.7258 118.292 63.8163 118.292 61.0779C118.292 46.3593 123.942 39 135.243 39C146.544 39 152.195 46.3593 152.195 61.0779C152.195 63.474 151.852 66.3835 151.167 69.8065Z" />
</svg>
